<svg width="1080" height="1080" viewBox="0 0 1080 1080" xmlns="http://www.w3.org/2000/svg">
  <defs>
    <style>
      @import url('https://fonts.googleapis.com/css2?family=Orbitron:wght@700;900&amp;family=Plus+Jakarta+Sans:wght@400;600;700;800&amp;family=Share+Tech+Mono&amp;display=swap');
    </style>
    <linearGradient id="bgGrad" x1="0" y1="0" x2="1080" y2="1080" gradientUnits="userSpaceOnUse">
      <stop offset="0" stop-color="#eef8f6"/>
      <stop offset="1" stop-color="#dcf0ec"/>
    </linearGradient>
    <pattern id="grid" x="0" y="0" width="46" height="46" patternUnits="userSpaceOnUse">
      <path d="M 46 0 L 0 0 0 46" fill="none" stroke="#077a6e" stroke-opacity="0.14" stroke-width="1"/>
    </pattern>
    <radialGradient id="ringFade" cx="0.5" cy="0.5" r="0.5">
      <stop offset="0" stop-color="#077a6e" stop-opacity="0.35"/>
      <stop offset="1" stop-color="#077a6e" stop-opacity="0"/>
    </radialGradient>
  </defs>

  <!-- Background -->
  <rect width="1080" height="1080" fill="url(#bgGrad)"/>
  <rect width="1080" height="1080" fill="url(#grid)"/>

  <!-- Sydney Harbour motif, bottom right: Opera House sails (true logo silhouette), reflection & ripple network -->
  <g transform="translate(830,760)">
    <circle r="245" fill="url(#ringFade)"/>

    <path id="sailB" d="M -95.14,-77.46 C -112.67,-87.95 -149.82,-93.42 -170.00,-92.16 c 15.09,18.16 40.35,50.37 53.01,77.70 C -111.39,-28.46 -98.78,-65.04 -95.14,-77.46 Z" fill="#077a6e" fill-opacity="0.04" stroke="#077a6e" stroke-opacity="0.28" stroke-width="2"/>
    <path id="sailA" d="M -23.58,-99.39 c -23.25,-17.36 -68.53,-25.12 -101.36,-22.86 c 28.00,29.90 68.82,113.50 72.80,122.27 C -39.97,-24.27 -25.57,-86.69 -23.58,-99.39 Z" fill="#077a6e" fill-opacity="0.05" stroke="#077a6e" stroke-opacity="0.34" stroke-width="2"/>
    <path id="sailC" d="M 94.82,-84.37 c 0.69,-0.54 1.38,-1.06 2.06,-1.60 C 61.90,-128.13 12.80,-168.53 -60.05,-181.26 c 17.62,24.83 54.75,122.53 71.01,181.26 C 38.66,-23.17 79.68,-69.70 94.82,-84.37 Z" fill="#077a6e" fill-opacity="0.06" stroke="#077a6e" stroke-opacity="0.4" stroke-width="2"/>
    <path id="sailD" d="M 216.66,-120.93 c -53.34,-1.02 -83.17,6.82 -119.78,34.98 c 24.14,29.12 41.57,59.06 55.44,81.41 C 176.02,-64.66 194.80,-91.38 216.66,-120.93 Z" fill="#077a6e" fill-opacity="0.08" stroke="#077a6e" stroke-opacity="0.48" stroke-width="2"/>

    <line x1="-185" y1="0" x2="221" y2="0" stroke="#077a6e" stroke-opacity="0.25" stroke-width="2"/>

    <g transform="scale(1,-0.42)" opacity="0.18">
      <use href="#sailB"/>
      <use href="#sailA"/>
      <use href="#sailC"/>
      <use href="#sailD"/>
    </g>

    <ellipse cx="35" cy="16" rx="32" ry="9" fill="none" stroke="#077a6e" stroke-opacity="0.32" stroke-width="1.5"/>
    <ellipse cx="35" cy="16" rx="62" ry="17" fill="none" stroke="#077a6e" stroke-opacity="0.22" stroke-width="1.5"/>
    <ellipse cx="35" cy="16" rx="94" ry="26" fill="none" stroke="#077a6e" stroke-opacity="0.13" stroke-width="1.5"/>

    <line x1="35" y1="16" x2="-80" y2="24" stroke="#077a6e" stroke-opacity="0.4" stroke-width="1.5"/>
    <line x1="35" y1="16" x2="165" y2="28" stroke="#077a6e" stroke-opacity="0.4" stroke-width="1.5"/>
    <circle cx="35" cy="16" r="8" fill="#077a6e"/>
    <circle cx="-80" cy="24" r="7" fill="#077a6e" fill-opacity="0.85"/>
    <circle cx="165" cy="28" r="7" fill="#077a6e" fill-opacity="0.85"/>
  </g>

  <!-- Frame accent -->
  <rect x="24" y="24" width="1032" height="1032" fill="none" stroke="#077a6e" stroke-opacity="0.25" stroke-width="2"/>

  <!-- Eyebrow -->
  <text x="72" y="132" font-family="'Share Tech Mono', monospace" font-size="26" letter-spacing="0.2em" fill="#077a6e" fill-opacity="0.7">LOCAL AI &#8226; MEETUP</text>

  <!-- Title (single colour, edge to edge) -->
  <text x="68" y="252" font-family="Orbitron, monospace" font-size="100" font-weight="700" fill="#077a6e">localAI Catchup</text>
  <text x="68" y="366" font-family="Orbitron, monospace" font-size="100" font-weight="700" fill="#077a6e">Sydney #1</text>

  <!-- Divider -->
  <line x1="72" y1="410" x2="600" y2="410" stroke="#077a6e" stroke-opacity="0.35" stroke-width="3"/>

  <!-- Details (bigger) -->
  <text x="72" y="490" font-family="'Plus Jakarta Sans', sans-serif" font-size="54" font-weight="800" fill="#0a3330">Sunday, 19th July</text>
  <text x="72" y="550" font-family="'Plus Jakarta Sans', sans-serif" font-size="54" font-weight="800" fill="#0a3330">2026</text>
  <text x="72" y="612" font-family="'Plus Jakarta Sans', sans-serif" font-size="48" font-weight="700" fill="#04a893">1:00 PM &#8211; 3:00 PM</text>
  <text x="72" y="676" font-family="'Plus Jakarta Sans', sans-serif" font-size="44" font-weight="800" fill="#0a3330">ICC Sydney</text>
  <text x="72" y="722" font-family="'Plus Jakarta Sans', sans-serif" font-size="36" font-weight="600" fill="#0a4a44">14 Darling Dr, Sydney NSW 2000</text>

  <!-- Domain link -->
  <text x="1008" y="1032" text-anchor="end" font-family="'Plus Jakarta Sans', sans-serif" font-size="24" font-weight="600" fill="#077a6e" fill-opacity="0.65">localai.xdeca.com</text>
</svg>
